<svg xmlns="http://www.w3.org/2000/svg" viewBox="0 0 1580 930.37"><defs><style>.cls-1{fill:#ed1c24;}</style></defs><g id="Layer_2" data-name="Layer 2"><g id="Layer_1-2" data-name="Layer 1"><path d="M132.49,125.62V288.53H414.14V414.14H132.49V577.05H445.55V702.67H0V0H445.55V125.62Z"/><path d="M1134.45,125.62V0H1580V702.67H1134.45V577.05h313.06V414.14H1165.86V288.53h281.65V125.62Z"/><path d="M.3,793H85.5v24H25.64v32.65H79.5v24H25.64v53.67H.3Z"/><path d="M264.35,793h28.9l50.48,134.37h-28L304.7,895.28H252.9l-11.07,32.09h-28Zm32.09,79-12-33.59-4.88-16.33h-1.5l-4.88,16.33-12,33.59Z"/><path d="M532,930.37a55.46,55.46,0,0,1-16.52-2.44A47.47,47.47,0,0,1,501,920.61a50.73,50.73,0,0,1-11.45-11.91,58,58,0,0,1-7.69-16.42l23.83-9.39a36.36,36.36,0,0,0,9.2,16.8q6.57,6.66,17.26,6.66a27.77,27.77,0,0,0,7.6-1,22.43,22.43,0,0,0,6.57-3,14.58,14.58,0,0,0,4.6-5,13.85,13.85,0,0,0,1.69-6.94,16.84,16.84,0,0,0-1.31-6.76,16,16,0,0,0-4.41-5.63,39.25,39.25,0,0,0-8.07-5.06,121.24,121.24,0,0,0-12.3-5.07l-8.25-3a63.11,63.11,0,0,1-11-5.07,47.93,47.93,0,0,1-10-7.7,37.92,37.92,0,0,1-7.42-10.6,31.6,31.6,0,0,1-2.9-13.79A35.39,35.39,0,0,1,490,813a36.12,36.12,0,0,1,8.82-12,41.39,41.39,0,0,1,13.7-8.07,56.69,56.69,0,0,1,35.28-.19,43.35,43.35,0,0,1,12.58,6.94,38.79,38.79,0,0,1,8.35,9.29,45.16,45.16,0,0,1,4.69,9.57l-22.33,9.39a23.78,23.78,0,0,0-6.85-10.14q-5-4.5-13.61-4.5-8.25,0-13.7,3.85a11.76,11.76,0,0,0-5.44,10q0,6,5.25,10.23t16.71,8.17l8.44,2.81a97,97,0,0,1,14.73,6.48,46.13,46.13,0,0,1,11.45,8.72,35.6,35.6,0,0,1,7.32,11.54A40.75,40.75,0,0,1,577.93,890q0,10.51-4.22,18.11a38.59,38.59,0,0,1-10.79,12.48,46.68,46.68,0,0,1-14.82,7.32A56.74,56.74,0,0,1,532,930.37Z"/><path d="M730.13,793h25.34v53.67H812V793h25.34V927.37H812V870.69H755.47v56.68H730.13Z"/><path d="M995.67,793H1021V927.37H995.67Z"/><path d="M1241.14,930.37a70.71,70.71,0,0,1-27.87-5.44A68.55,68.55,0,0,1,1191,910a69.27,69.27,0,0,1-14.73-22.33,73.33,73.33,0,0,1,0-55A69.27,69.27,0,0,1,1191,810.36a68.55,68.55,0,0,1,22.24-14.92,74.11,74.11,0,0,1,55.74,0,68.55,68.55,0,0,1,22.24,14.92A69.27,69.27,0,0,1,1306,832.69a73.33,73.33,0,0,1,0,55A69.27,69.27,0,0,1,1291.25,910,68.55,68.55,0,0,1,1269,924.93,70.71,70.71,0,0,1,1241.14,930.37Zm0-24a45.46,45.46,0,0,0,17.55-3.38,44.26,44.26,0,0,0,14.26-9.38,42.62,42.62,0,0,0,9.57-14.55,53,53,0,0,0,0-37.72,42.77,42.77,0,0,0-9.57-14.54,44.26,44.26,0,0,0-14.26-9.38,47.25,47.25,0,0,0-35.1,0,44.26,44.26,0,0,0-14.26,9.38,42.77,42.77,0,0,0-9.57,14.54,53,53,0,0,0,0,37.72,42.62,42.62,0,0,0,9.57,14.55,44.26,44.26,0,0,0,14.26,9.38A45.5,45.5,0,0,0,1241.14,906.35Z"/><path d="M1463.15,793h29.46l54.05,90.08h1.5l-1.5-25.9V793h25.15V927.37h-26.65l-57.05-95.15h-1.5l1.5,25.9v69.25h-25Z"/><rect class="cls-1" x="567.23" width="445.55" height="125.62"/><rect class="cls-1" x="567.23" y="288.53" width="445.55" height="125.62"/><rect class="cls-1" x="567.23" y="577.05" width="445.55" height="125.62"/></g></g></svg>