<svg width="110" height="65" viewBox="0 0 110 65" fill="none" xmlns="http://www.w3.org/2000/svg">
<g clip-path="url(#clip0_94_309)">
<path d="M9.21961 8.76962V20.146H28.8307V28.9157H9.21961V40.2921H31.0191V49.0617H0V0H31.0191V8.76962H9.21961Z" fill="white"/>
<path d="M78.9808 8.76962V0H110V49.09H78.9808V40.3204H100.78V28.944H81.1693V20.1744H100.78V8.76962H78.9808Z" fill="white"/>
<path d="M0.0142822 55.3945H5.9442V57.0663H1.77914V59.3614H5.53476V61.0332H1.77914V64.7875H0.0142822V55.3945Z" fill="white"/>
<path d="M18.411 55.3945H20.43L23.9456 64.7875H21.9972L21.2206 62.5491H17.6203L16.8438 64.7875H14.8954L18.411 55.3945ZM20.6418 60.9198L19.8087 58.568L19.4699 57.4205H19.3711L19.0322 58.568L18.1992 60.9198H20.6418Z" fill="white"/>
<path d="M37.0338 65.0001C36.6385 65.0001 36.2431 64.9435 35.8902 64.8301C35.5231 64.7168 35.1842 64.5468 34.8877 64.3201C34.5771 64.0934 34.323 63.8101 34.0971 63.4842C33.8712 63.1584 33.6876 62.7758 33.5605 62.3367L35.2266 61.685C35.3536 62.1525 35.5654 62.5492 35.8619 62.8608C36.1725 63.1725 36.5679 63.3284 37.062 63.3284C37.2456 63.3284 37.415 63.3 37.5844 63.2575C37.7538 63.215 37.9092 63.1442 38.0362 63.045C38.1774 62.96 38.2762 62.8325 38.361 62.6908C38.4457 62.5492 38.4739 62.3933 38.4739 62.2091C38.4739 62.0391 38.4457 61.8833 38.3892 61.7416C38.3327 61.5999 38.2198 61.4724 38.0786 61.3449C37.9374 61.2174 37.7538 61.1041 37.5138 60.9908C37.2879 60.8774 36.9914 60.7641 36.6526 60.6366L36.0737 60.4241C35.8196 60.3391 35.5654 60.2257 35.3113 60.0699C35.0571 59.9282 34.8171 59.744 34.6053 59.5315C34.3936 59.319 34.2241 59.0782 34.0829 58.7948C33.9418 58.5115 33.8853 58.1856 33.8853 57.8314C33.8853 57.4631 33.9559 57.1231 34.0971 56.7972C34.2383 56.4714 34.45 56.2022 34.7042 55.9613C34.9724 55.7205 35.283 55.5363 35.6643 55.3946C36.0313 55.253 36.4408 55.1963 36.8926 55.1963C37.3585 55.1963 37.768 55.253 38.1209 55.3805C38.4598 55.508 38.7563 55.6638 38.9963 55.8622C39.2363 56.0605 39.434 56.273 39.5752 56.5139C39.7164 56.7547 39.8293 56.9672 39.8999 57.1797L38.3468 57.8314C38.2621 57.5622 38.1068 57.3356 37.8668 57.1231C37.6409 56.9105 37.3162 56.8114 36.9208 56.8114C36.5396 56.8114 36.2149 56.8964 35.9608 57.0806C35.7066 57.2647 35.5795 57.4914 35.5795 57.7889C35.5795 58.0723 35.7066 58.3131 35.9466 58.4973C36.1867 58.6956 36.582 58.8798 37.1044 59.064L37.6974 59.2623C38.0786 59.3898 38.4174 59.5457 38.728 59.7157C39.0387 59.8857 39.3069 60.084 39.5187 60.3249C39.7446 60.5657 39.914 60.8349 40.027 61.1324C40.1399 61.4299 40.1964 61.7841 40.1964 62.1808C40.1964 62.6767 40.0976 63.0875 39.8999 63.4417C39.7023 63.7959 39.4481 64.0934 39.1516 64.3201C38.841 64.5468 38.5021 64.7168 38.1209 64.8301C37.7821 64.9435 37.4009 65.0001 37.0338 65.0001Z" fill="white"/>
<path d="M50.8279 55.3945H52.5927V59.1489H56.5319V55.3945H58.2968V64.7875H56.5319V60.8348H52.5927V64.7875H50.8279V55.3945Z" fill="white"/>
<path d="M69.3236 55.3945H71.0885V64.7875H69.3236V55.3945Z" fill="white"/>
<path d="M86.4075 65.0001C85.7156 65.0001 85.0662 64.8726 84.4732 64.6176C83.8802 64.3626 83.3578 64.0226 82.9201 63.5692C82.4824 63.13 82.1436 62.6059 81.8894 62.0108C81.6353 61.4158 81.5223 60.7783 81.5223 60.0841C81.5223 59.404 81.6494 58.7665 81.8894 58.1573C82.1436 57.5623 82.4824 57.0381 82.9201 56.5989C83.3578 56.1597 83.8661 55.8055 84.4732 55.5505C85.0662 55.2955 85.7156 55.168 86.4075 55.168C87.0993 55.168 87.7488 55.2955 88.3417 55.5505C88.9347 55.8055 89.4571 56.1455 89.8948 56.5989C90.3325 57.0381 90.6714 57.5623 90.9255 58.1573C91.1796 58.7523 91.2926 59.3899 91.2926 60.0841C91.2926 60.7641 91.1655 61.4016 90.9255 62.0108C90.6714 62.6059 90.3325 63.13 89.8948 63.5692C89.4571 64.0084 88.9489 64.3626 88.3417 64.6176C87.7488 64.8726 87.0993 65.0001 86.4075 65.0001ZM86.4075 63.3142C86.8451 63.3142 87.2546 63.2292 87.6358 63.0734C88.017 62.9175 88.3417 62.6909 88.6241 62.4217C88.9065 62.1383 89.1324 61.7983 89.2877 61.4016C89.443 61.0049 89.5277 60.5657 89.5277 60.0841C89.5277 59.6024 89.443 59.1632 89.2877 58.7665C89.1324 58.3698 88.9065 58.0298 88.6241 57.7464C88.3417 57.4631 88.017 57.2506 87.6358 57.0947C87.2546 56.9389 86.8451 56.8539 86.4075 56.8539C85.9698 56.8539 85.5603 56.9389 85.1791 57.0947C84.7979 57.2506 84.4732 57.4773 84.1908 57.7464C83.9084 58.0298 83.6825 58.3698 83.5272 58.7665C83.3719 59.1632 83.2872 59.6024 83.2872 60.0841C83.2872 60.5657 83.3719 61.0049 83.5272 61.4016C83.6825 61.7983 83.9084 62.1383 84.1908 62.4217C84.4732 62.705 84.7979 62.9175 85.1791 63.0734C85.5603 63.2434 85.9698 63.3142 86.4075 63.3142Z" fill="white"/>
<path d="M101.868 55.3945H103.915L107.685 61.6849H107.783L107.685 59.8714V55.3945H109.435V64.7875H107.586L103.618 58.143H103.491L103.59 59.9564V64.7875H101.854V55.3945H101.868Z" fill="white"/>
<path d="M70.5096 0H39.4905V8.76962H70.5096V0Z" fill="#E11D48"/>
<path d="M70.5096 20.1602H39.4905V28.9298H70.5096V20.1602Z" fill="#E11D48"/>
<path d="M70.5096 40.3062H39.4905V49.0758H70.5096V40.3062Z" fill="#E11D48"/>
</g>
<defs>
<clipPath id="clip0_94_309">
<rect width="110" height="65" fill="white"/>
</clipPath>
</defs>
</svg>
